<svg xmlns="http://www.w3.org/2000/svg" xmlns:xlink="http://www.w3.org/1999/xlink" xml:space="preserve" version="1.1" style="shape-rendering:geometricPrecision;text-rendering:geometricPrecision;image-rendering:optimizeQuality;" viewBox="0 0 428 510" x="0px" y="0px" fill-rule="evenodd" clip-rule="evenodd"><defs><style type="text/css">
   
    .fil0 {fill:black}
   
  </style></defs><g><path class="fil0" d="M268 308c-2,13 -13,22 -26,22l-56 0c-13,0 -24,-9 -26,-22 -7,-43 -47,-49 -48,-108 -1,-137 204,-137 204,-2 0,61 -41,66 -48,110zm-38 -104l-16 16 -16 -16c-11,-10 -26,5 -16,15l21 21 0 65 -17 0c-1,0 -1,0 -2,-1 -7,-48 -47,-58 -47,-105 -1,-103 154,-103 154,-1 0,48 -40,57 -48,106 0,1 -1,1 -1,1l-17 0 0 -65 20 -21c10,-10 -5,-25 -15,-15z"/><path class="fil0" d="M259 356c0,12 1,28 -16,30 -8,30 -50,30 -59,0 -16,-2 -15,-18 -15,-30 0,-6 4,-11 11,-11l68 0c6,0 11,5 11,11z"/><path class="fil0" d="M225 11l0 46c0,15 -23,15 -23,0l0 -46c0,-15 23,-15 23,0z"/><path class="fil0" d="M79 63l32 32c11,11 -6,27 -16,16l-32 -32c-11,-11 5,-27 16,-16z"/><path class="fil0" d="M11 202l46 0c15,0 15,23 0,23l-46 0c-15,0 -15,-23 0,-23z"/><path class="fil0" d="M63 349l32 -32c10,-11 27,5 16,16l-32 32c-11,11 -27,-5 -16,-16z"/><path class="fil0" d="M365 79l-32 32c-11,11 -27,-6 -16,-16l32 -32c11,-11 27,5 16,16z"/><path class="fil0" d="M416 225l-45 0c-15,0 -15,-23 0,-23l45 0c15,0 15,23 0,23z"/><path class="fil0" d="M349 365l-32 -32c-11,-11 5,-27 16,-16l32 32c11,11 -5,27 -16,16z"/></g><text x="0" y="423" fill="#000000" font-size="5px" font-weight="bold" font-family="'Helvetica Neue', Helvetica, Arial-Unicode, Arial, Sans-serif">Created by Saifurrijal</text><text x="0" y="428" fill="#000000" font-size="5px" font-weight="bold" font-family="'Helvetica Neue', Helvetica, Arial-Unicode, Arial, Sans-serif">from the Noun Project</text></svg>